<svg xmlns="http://www.w3.org/2000/svg" version="1.1">
  <path d="M 1075 655 L 1075 663 L 1074 664 L 1074 668 L 1075 669 L 1075 698 L 1102 698 L 1102 692 L 1082 692 L 1081 691 L 1081 680 L 1082 679 L 1083 680 L 1084 680 L 1085 679 L 1086 680 L 1099 680 L 1100 679 L 1100 673 L 1082 673 L 1081 672 L 1081 662 L 1082 661 L 1102 661 L 1102 655 Z" fill="black" />
  <path d="M 1001 655 L 1001 656 L 1000 657 L 1000 659 L 999 660 L 999 662 L 998 663 L 998 664 L 997 665 L 997 667 L 996 668 L 996 669 L 995 670 L 995 672 L 994 673 L 994 674 L 993 675 L 993 677 L 992 678 L 992 679 L 991 680 L 991 682 L 990 683 L 990 684 L 989 685 L 989 687 L 988 688 L 988 690 L 987 691 L 987 692 L 986 693 L 986 696 L 985 697 L 985 699 L 991 699 L 992 698 L 992 697 L 993 696 L 993 695 L 994 694 L 994 692 L 995 691 L 995 689 L 996 688 L 996 687 L 997 686 L 1012 686 L 1014 688 L 1014 690 L 1015 691 L 1015 692 L 1016 693 L 1016 695 L 1017 696 L 1017 698 L 1018 699 L 1022 699 L 1023 698 L 1025 698 L 1024 697 L 1024 695 L 1023 694 L 1023 692 L 1022 691 L 1022 689 L 1021 688 L 1021 687 L 1020 686 L 1020 684 L 1019 683 L 1019 681 L 1018 680 L 1018 679 L 1017 678 L 1017 676 L 1016 675 L 1016 674 L 1015 673 L 1015 671 L 1014 670 L 1014 668 L 1013 667 L 1013 665 L 1012 664 L 1012 663 L 1011 662 L 1011 661 L 1010 660 L 1010 658 L 1009 657 L 1009 656 L 1008 655 Z" fill="black" />
  <path d="M 945 655 L 945 699 L 951 699 L 951 696 L 952 695 L 952 684 L 951 683 L 952 682 L 958 682 L 962 686 L 962 687 L 964 689 L 964 690 L 965 691 L 965 692 L 967 694 L 967 695 L 968 696 L 968 698 L 969 699 L 971 699 L 972 698 L 975 698 L 976 697 L 975 696 L 975 695 L 974 694 L 974 693 L 973 692 L 973 691 L 972 690 L 972 689 L 970 687 L 970 686 L 966 682 L 968 680 L 969 680 L 970 679 L 971 679 L 974 676 L 974 675 L 975 674 L 975 672 L 976 671 L 976 666 L 975 665 L 975 664 L 974 663 L 974 661 L 971 658 L 970 658 L 969 657 L 968 657 L 967 656 L 962 656 L 961 655 Z" fill="black" />
  <path d="M 901 655 L 901 661 L 902 662 L 905 662 L 906 661 L 913 661 L 914 662 L 914 699 L 920 699 L 921 698 L 921 662 L 922 661 L 933 661 L 933 655 Z" fill="black" />
  <path d="M 845 655 L 844 656 L 843 656 L 842 657 L 841 657 L 840 658 L 839 658 L 838 659 L 838 660 L 837 661 L 837 662 L 836 663 L 836 672 L 837 673 L 837 674 L 839 676 L 840 676 L 841 677 L 842 677 L 843 678 L 845 678 L 846 679 L 848 679 L 849 680 L 852 680 L 853 681 L 855 681 L 856 682 L 857 682 L 860 685 L 860 689 L 857 692 L 855 692 L 854 693 L 851 693 L 850 692 L 846 692 L 845 691 L 845 690 L 843 688 L 843 686 L 836 686 L 836 690 L 837 691 L 837 693 L 838 694 L 838 695 L 839 696 L 840 696 L 842 698 L 844 698 L 845 699 L 858 699 L 859 698 L 861 698 L 866 693 L 866 690 L 867 689 L 867 683 L 866 682 L 866 680 L 862 676 L 861 676 L 860 675 L 858 675 L 857 674 L 854 674 L 853 673 L 850 673 L 849 672 L 847 672 L 846 671 L 845 671 L 843 669 L 843 665 L 846 662 L 848 662 L 849 661 L 853 661 L 854 662 L 855 662 L 858 665 L 858 666 L 859 667 L 859 668 L 866 668 L 866 667 L 865 666 L 865 663 L 864 662 L 864 661 L 863 660 L 863 659 L 862 658 L 861 658 L 859 656 L 857 656 L 856 655 Z" fill="black" />
  <path d="M 805 655 L 804 656 L 801 656 L 799 658 L 798 658 L 796 660 L 796 662 L 795 663 L 795 672 L 796 673 L 796 674 L 798 676 L 799 676 L 800 677 L 801 677 L 802 678 L 804 678 L 805 679 L 807 679 L 808 680 L 811 680 L 812 681 L 814 681 L 815 682 L 816 682 L 819 685 L 819 689 L 817 691 L 816 691 L 815 692 L 812 692 L 811 693 L 808 693 L 807 692 L 806 692 L 805 691 L 804 691 L 803 690 L 803 689 L 802 688 L 802 686 L 795 686 L 795 690 L 796 691 L 796 693 L 798 695 L 798 696 L 799 696 L 801 698 L 803 698 L 804 699 L 817 699 L 818 698 L 819 698 L 820 697 L 821 697 L 824 694 L 824 693 L 825 692 L 825 689 L 826 688 L 826 683 L 825 682 L 825 680 L 821 676 L 820 676 L 819 675 L 817 675 L 816 674 L 813 674 L 812 673 L 809 673 L 808 672 L 806 672 L 805 671 L 804 671 L 802 669 L 802 665 L 805 662 L 808 662 L 809 661 L 811 661 L 812 662 L 814 662 L 817 665 L 817 668 L 824 668 L 824 663 L 823 662 L 823 661 L 819 657 L 818 657 L 817 656 L 816 656 L 815 655 Z" fill="black" />
  <path d="M 756 655 L 756 666 L 757 667 L 757 698 L 784 698 L 784 692 L 764 692 L 763 691 L 763 680 L 764 679 L 765 680 L 781 680 L 781 673 L 764 673 L 763 672 L 763 662 L 764 661 L 783 661 L 783 655 Z" fill="black" />
  <path d="M 709 655 L 709 668 L 710 669 L 710 699 L 715 699 L 715 670 L 716 669 L 718 671 L 718 672 L 720 674 L 720 675 L 722 677 L 722 678 L 725 681 L 725 682 L 727 684 L 727 685 L 729 687 L 729 688 L 731 690 L 731 691 L 734 694 L 734 695 L 736 697 L 736 698 L 742 698 L 742 655 L 736 655 L 736 683 L 735 684 L 733 682 L 733 681 L 731 679 L 731 678 L 728 675 L 728 674 L 726 672 L 726 671 L 724 669 L 724 668 L 722 666 L 722 665 L 720 663 L 720 662 L 717 659 L 717 658 L 715 656 L 715 655 Z" fill="black" />
  <path d="M 656 655 L 655 656 L 653 656 L 652 657 L 651 657 L 650 658 L 649 658 L 647 660 L 647 661 L 646 662 L 646 663 L 645 664 L 645 668 L 646 669 L 646 672 L 647 673 L 647 674 L 650 677 L 651 677 L 652 678 L 654 678 L 655 679 L 657 679 L 658 680 L 661 680 L 662 681 L 665 681 L 666 682 L 667 682 L 669 684 L 669 685 L 670 686 L 670 688 L 669 689 L 669 690 L 667 692 L 665 692 L 664 693 L 658 693 L 657 692 L 656 692 L 654 690 L 654 689 L 653 688 L 653 686 L 645 686 L 645 687 L 646 688 L 646 691 L 647 692 L 647 693 L 648 694 L 648 695 L 650 697 L 651 697 L 652 698 L 654 698 L 655 699 L 667 699 L 668 698 L 670 698 L 671 697 L 672 697 L 674 695 L 674 694 L 675 693 L 675 692 L 676 691 L 676 682 L 675 681 L 675 680 L 674 679 L 674 678 L 673 677 L 672 677 L 671 676 L 670 676 L 669 675 L 666 675 L 665 674 L 663 674 L 662 673 L 659 673 L 658 672 L 656 672 L 655 671 L 654 671 L 652 669 L 652 666 L 653 665 L 653 664 L 654 663 L 655 663 L 656 662 L 657 662 L 658 661 L 662 661 L 663 662 L 665 662 L 667 664 L 667 665 L 668 666 L 668 668 L 675 668 L 675 665 L 674 664 L 674 662 L 673 661 L 673 660 L 670 657 L 669 657 L 668 656 L 665 656 L 664 655 Z" fill="black" />
  <path d="M 558 655 L 558 698 L 559 699 L 567 699 L 568 698 L 581 698 L 582 697 L 583 697 L 584 696 L 585 696 L 588 693 L 588 692 L 589 691 L 589 682 L 588 681 L 588 679 L 585 676 L 583 676 L 582 675 L 586 671 L 586 670 L 587 669 L 587 661 L 586 660 L 586 659 L 584 657 L 583 657 L 582 656 L 578 656 L 577 655 Z" fill="black" />
  <path d="M 1119 654 L 1118 655 L 1116 655 L 1116 698 L 1141 698 L 1142 697 L 1142 692 L 1123 692 L 1122 691 L 1122 655 L 1120 655 Z" fill="black" />
  <path d="M 1031 654 L 1030 655 L 1025 655 L 1024 656 L 1025 657 L 1025 658 L 1026 659 L 1026 660 L 1027 661 L 1027 662 L 1028 663 L 1028 665 L 1029 666 L 1029 667 L 1030 668 L 1030 669 L 1031 670 L 1031 672 L 1032 673 L 1032 674 L 1033 675 L 1033 677 L 1034 678 L 1034 679 L 1035 680 L 1035 682 L 1036 683 L 1036 684 L 1037 685 L 1037 687 L 1038 688 L 1038 690 L 1039 691 L 1039 693 L 1040 694 L 1040 696 L 1041 697 L 1041 699 L 1046 699 L 1047 698 L 1048 698 L 1049 697 L 1049 696 L 1050 695 L 1050 694 L 1051 693 L 1051 691 L 1052 690 L 1052 689 L 1053 688 L 1053 686 L 1054 685 L 1054 684 L 1055 683 L 1055 681 L 1056 680 L 1056 679 L 1057 678 L 1057 676 L 1058 675 L 1058 674 L 1059 673 L 1059 671 L 1060 670 L 1060 669 L 1061 668 L 1061 666 L 1062 665 L 1062 663 L 1063 662 L 1063 660 L 1064 659 L 1064 657 L 1065 656 L 1065 655 L 1061 655 L 1060 654 L 1059 654 L 1059 655 L 1058 656 L 1058 657 L 1057 658 L 1057 659 L 1056 660 L 1056 662 L 1055 663 L 1055 664 L 1054 665 L 1054 667 L 1053 668 L 1053 669 L 1052 670 L 1052 672 L 1051 673 L 1051 675 L 1050 676 L 1050 677 L 1049 678 L 1049 680 L 1048 681 L 1048 682 L 1047 683 L 1047 685 L 1046 686 L 1046 687 L 1045 688 L 1044 687 L 1044 685 L 1043 684 L 1043 681 L 1042 680 L 1042 679 L 1041 678 L 1041 676 L 1040 675 L 1040 673 L 1039 672 L 1039 671 L 1038 670 L 1038 668 L 1037 667 L 1037 666 L 1036 665 L 1036 663 L 1035 662 L 1035 661 L 1034 660 L 1034 659 L 1033 658 L 1033 657 L 1032 656 L 1032 654 Z" fill="black" />
  <path d="M 694 654 L 693 655 L 689 655 L 689 699 L 695 699 L 695 654 Z" fill="black" />
  <path d="M 602 654 L 601 655 L 601 689 L 602 690 L 602 691 L 603 692 L 603 693 L 607 697 L 609 697 L 610 698 L 612 698 L 613 699 L 620 699 L 621 698 L 623 698 L 624 697 L 626 697 L 628 695 L 629 695 L 629 694 L 631 692 L 631 691 L 632 690 L 632 686 L 633 685 L 633 657 L 632 656 L 633 655 L 626 655 L 626 685 L 625 686 L 625 688 L 622 691 L 621 691 L 620 692 L 613 692 L 612 691 L 611 691 L 608 688 L 608 686 L 607 685 L 607 658 L 606 657 L 606 654 Z" fill="black" />
  <path d="M 926 582 L 925 583 L 921 583 L 920 584 L 918 584 L 917 585 L 916 585 L 912 589 L 912 590 L 911 591 L 911 592 L 910 593 L 910 594 L 909 595 L 909 598 L 908 599 L 908 611 L 909 612 L 909 615 L 910 616 L 910 617 L 916 623 L 917 623 L 918 624 L 919 624 L 920 625 L 925 625 L 926 626 L 928 626 L 929 625 L 933 625 L 934 624 L 935 624 L 939 620 L 940 621 L 940 626 L 942 626 L 943 625 L 945 625 L 946 624 L 946 607 L 947 606 L 947 601 L 926 601 L 926 608 L 937 608 L 938 607 L 939 608 L 939 610 L 938 611 L 938 613 L 933 618 L 931 618 L 930 619 L 924 619 L 923 618 L 921 618 L 917 614 L 917 613 L 916 612 L 916 610 L 915 609 L 915 600 L 916 599 L 916 597 L 917 596 L 917 595 L 918 594 L 918 593 L 919 592 L 920 592 L 922 590 L 924 590 L 925 589 L 930 589 L 931 590 L 933 590 L 936 593 L 936 595 L 937 596 L 940 596 L 941 595 L 944 595 L 944 592 L 943 591 L 943 590 L 942 589 L 942 588 L 939 585 L 938 585 L 937 584 L 935 584 L 934 583 L 931 583 L 930 582 L 928 582 L 927 583 Z" fill="black" />
  <path d="M 865 582 L 864 583 L 862 583 L 862 625 L 868 625 L 869 624 L 868 623 L 869 622 L 869 608 L 868 607 L 868 597 L 869 596 L 871 598 L 871 599 L 873 601 L 873 602 L 875 604 L 875 605 L 877 607 L 877 608 L 879 610 L 879 611 L 882 614 L 882 615 L 884 617 L 884 618 L 887 621 L 887 622 L 888 623 L 888 624 L 889 625 L 896 625 L 896 583 L 895 582 L 889 582 L 889 610 L 888 611 L 887 610 L 887 609 L 886 608 L 886 607 L 883 604 L 883 603 L 880 600 L 880 599 L 878 597 L 878 596 L 876 594 L 876 593 L 873 590 L 873 589 L 871 587 L 871 586 L 869 584 L 869 583 L 868 582 Z" fill="black" />
  <path d="M 799 582 L 799 589 L 811 589 L 812 590 L 812 619 L 811 620 L 811 625 L 818 625 L 818 590 L 819 589 L 830 589 L 830 582 Z" fill="black" />
  <path d="M 774 582 L 774 583 L 773 584 L 773 586 L 772 587 L 772 589 L 771 590 L 771 591 L 770 592 L 770 594 L 769 595 L 769 597 L 768 598 L 768 599 L 767 600 L 767 601 L 766 602 L 766 604 L 765 605 L 765 607 L 764 608 L 764 609 L 763 610 L 763 612 L 762 613 L 762 615 L 761 616 L 761 617 L 760 618 L 760 620 L 759 621 L 759 623 L 758 624 L 758 625 L 765 625 L 766 624 L 766 622 L 767 621 L 767 619 L 768 618 L 768 617 L 769 616 L 769 615 L 770 614 L 785 614 L 787 616 L 787 617 L 788 618 L 788 620 L 789 621 L 789 623 L 790 624 L 790 625 L 797 625 L 797 622 L 796 621 L 796 619 L 795 618 L 795 616 L 794 615 L 794 614 L 793 613 L 793 611 L 792 610 L 792 608 L 791 607 L 791 605 L 790 604 L 790 602 L 789 601 L 789 600 L 788 599 L 788 597 L 787 596 L 787 594 L 786 593 L 786 592 L 785 591 L 785 589 L 784 588 L 784 587 L 783 586 L 783 584 L 782 583 L 782 582 Z" fill="black" />
  <path d="M 725 582 L 724 583 L 722 583 L 721 584 L 720 584 L 719 585 L 718 585 L 713 590 L 713 591 L 712 592 L 712 593 L 711 594 L 711 597 L 710 598 L 710 610 L 711 611 L 711 614 L 712 615 L 712 616 L 713 617 L 713 618 L 718 623 L 719 623 L 720 624 L 721 624 L 722 625 L 726 625 L 727 626 L 730 626 L 731 625 L 734 625 L 735 624 L 737 624 L 741 620 L 742 621 L 742 623 L 743 624 L 743 626 L 744 626 L 745 625 L 748 625 L 748 601 L 728 601 L 728 608 L 736 608 L 737 607 L 740 607 L 741 608 L 741 610 L 740 611 L 740 613 L 739 614 L 739 615 L 737 617 L 736 617 L 735 618 L 733 618 L 732 619 L 726 619 L 725 618 L 723 618 L 718 613 L 718 610 L 717 609 L 717 600 L 718 599 L 718 596 L 720 594 L 720 593 L 723 590 L 724 590 L 725 589 L 733 589 L 734 590 L 735 590 L 738 593 L 738 594 L 739 595 L 739 596 L 742 596 L 743 595 L 746 595 L 746 592 L 745 591 L 745 589 L 740 584 L 738 584 L 737 583 L 735 583 L 734 582 Z" fill="black" />
  <path d="M 691 582 L 691 625 L 698 625 L 698 591 L 697 590 L 697 582 Z" fill="black" />
  <path d="M 618 582 L 619 583 L 618 584 L 618 585 L 617 586 L 617 588 L 616 589 L 616 591 L 615 592 L 615 593 L 614 594 L 614 595 L 613 596 L 613 598 L 612 599 L 612 601 L 611 602 L 611 603 L 610 604 L 610 606 L 609 607 L 609 608 L 608 609 L 608 611 L 607 612 L 607 614 L 606 615 L 606 616 L 605 617 L 605 619 L 604 620 L 604 622 L 603 623 L 603 625 L 610 625 L 610 623 L 611 622 L 611 621 L 612 620 L 612 618 L 613 617 L 613 616 L 615 614 L 630 614 L 631 615 L 631 616 L 632 617 L 632 619 L 633 620 L 633 621 L 634 622 L 634 625 L 640 625 L 641 624 L 641 622 L 640 621 L 640 619 L 639 618 L 639 616 L 638 615 L 638 613 L 637 612 L 637 610 L 636 609 L 636 608 L 635 607 L 635 605 L 634 604 L 634 603 L 633 602 L 633 600 L 632 599 L 632 597 L 631 596 L 631 594 L 630 593 L 630 592 L 629 591 L 629 589 L 628 588 L 628 586 L 627 585 L 627 584 L 626 583 L 626 582 Z" fill="black" />
  <path d="M 559 582 L 558 583 L 558 590 L 559 591 L 559 625 L 565 625 L 565 597 L 566 596 L 567 597 L 567 598 L 569 600 L 569 601 L 571 603 L 571 604 L 573 606 L 573 607 L 575 609 L 575 610 L 578 613 L 578 614 L 579 615 L 579 616 L 582 619 L 582 620 L 584 622 L 584 623 L 585 624 L 585 625 L 590 625 L 591 624 L 592 625 L 592 582 L 586 582 L 586 584 L 585 585 L 586 586 L 586 593 L 585 594 L 586 595 L 585 596 L 586 597 L 586 602 L 585 603 L 586 604 L 586 607 L 585 608 L 586 609 L 586 610 L 585 611 L 583 609 L 583 608 L 581 606 L 581 605 L 578 602 L 578 601 L 576 599 L 576 598 L 574 596 L 574 595 L 572 593 L 572 592 L 569 589 L 569 588 L 567 586 L 567 585 L 565 583 L 565 582 L 561 582 L 560 583 Z" fill="black" />
  <path d="M 847 581 L 846 582 L 842 582 L 841 583 L 841 605 L 842 606 L 842 625 L 848 625 L 848 586 L 847 585 L 848 584 L 847 583 L 848 582 Z" fill="black" />
  <path d="M 676 581 L 674 583 L 674 585 L 673 586 L 673 587 L 672 588 L 672 590 L 671 591 L 671 592 L 670 593 L 670 595 L 669 596 L 669 598 L 668 599 L 668 600 L 667 601 L 667 603 L 666 604 L 666 605 L 665 606 L 665 608 L 664 609 L 664 611 L 663 612 L 663 613 L 662 614 L 661 614 L 660 613 L 660 611 L 659 610 L 659 608 L 658 607 L 658 605 L 657 604 L 657 602 L 656 601 L 656 599 L 655 598 L 655 597 L 654 596 L 654 594 L 653 593 L 653 591 L 652 590 L 652 589 L 651 588 L 651 587 L 650 586 L 650 585 L 649 584 L 649 582 L 643 582 L 642 583 L 641 583 L 642 584 L 642 585 L 643 586 L 643 587 L 644 588 L 644 590 L 645 591 L 645 592 L 646 593 L 646 594 L 647 595 L 647 597 L 648 598 L 648 599 L 649 600 L 649 601 L 650 602 L 650 604 L 651 605 L 651 606 L 652 607 L 652 609 L 653 610 L 653 611 L 654 612 L 654 614 L 655 615 L 655 617 L 656 618 L 656 620 L 657 621 L 657 623 L 658 624 L 658 626 L 659 627 L 660 626 L 663 626 L 664 625 L 665 625 L 666 624 L 666 622 L 667 621 L 667 620 L 668 619 L 668 617 L 669 616 L 669 615 L 670 614 L 670 612 L 671 611 L 671 610 L 672 609 L 672 608 L 673 607 L 673 605 L 674 604 L 674 602 L 675 601 L 675 600 L 676 599 L 676 597 L 677 596 L 677 594 L 678 593 L 678 592 L 679 591 L 679 589 L 680 588 L 680 586 L 681 585 L 681 584 L 682 583 L 681 582 L 677 582 Z" fill="black" />
  <path d="M 935 418 L 934 419 L 934 420 L 933 421 L 933 422 L 932 423 L 932 424 L 931 425 L 931 427 L 930 428 L 930 429 L 929 430 L 929 432 L 928 433 L 928 435 L 927 436 L 927 437 L 926 438 L 926 440 L 925 441 L 925 443 L 924 444 L 924 445 L 923 446 L 923 448 L 922 449 L 922 451 L 921 452 L 921 454 L 920 455 L 920 456 L 919 457 L 919 459 L 918 460 L 918 462 L 917 463 L 917 464 L 916 465 L 916 467 L 915 468 L 915 470 L 914 471 L 914 472 L 913 473 L 913 475 L 912 476 L 912 478 L 911 479 L 911 480 L 910 481 L 910 483 L 909 484 L 909 486 L 908 487 L 908 488 L 907 489 L 907 491 L 906 492 L 906 494 L 905 495 L 905 497 L 904 498 L 904 499 L 903 500 L 903 502 L 902 503 L 902 504 L 901 505 L 901 508 L 900 509 L 900 511 L 899 512 L 898 511 L 898 507 L 897 506 L 897 505 L 896 504 L 896 502 L 895 501 L 895 499 L 894 498 L 894 497 L 893 496 L 893 494 L 892 493 L 892 491 L 891 490 L 891 489 L 890 488 L 890 486 L 889 485 L 889 484 L 888 483 L 888 481 L 887 480 L 887 478 L 886 477 L 886 476 L 885 475 L 885 473 L 884 472 L 884 470 L 883 469 L 883 468 L 882 467 L 882 465 L 881 464 L 881 463 L 880 462 L 880 460 L 879 459 L 879 457 L 878 456 L 878 454 L 877 453 L 877 452 L 876 451 L 876 449 L 875 448 L 875 446 L 874 445 L 874 444 L 873 443 L 873 441 L 872 440 L 872 439 L 871 438 L 871 436 L 870 435 L 870 434 L 869 433 L 869 431 L 868 430 L 868 428 L 867 427 L 867 426 L 866 425 L 866 423 L 865 422 L 865 420 L 864 419 L 838 419 L 838 420 L 839 421 L 839 422 L 840 423 L 840 425 L 841 426 L 841 427 L 842 428 L 842 430 L 843 431 L 843 432 L 844 433 L 844 435 L 845 436 L 845 437 L 846 438 L 846 440 L 847 441 L 847 442 L 848 443 L 848 445 L 849 446 L 849 447 L 850 448 L 850 450 L 851 451 L 851 452 L 852 453 L 852 455 L 853 456 L 853 458 L 854 459 L 854 460 L 855 461 L 855 462 L 856 463 L 856 465 L 857 466 L 857 467 L 858 468 L 858 470 L 859 471 L 859 472 L 860 473 L 860 475 L 861 476 L 861 477 L 862 478 L 862 480 L 863 481 L 863 482 L 864 483 L 864 485 L 865 486 L 865 487 L 866 488 L 866 490 L 867 491 L 867 492 L 868 493 L 868 494 L 869 495 L 869 497 L 870 498 L 870 499 L 871 500 L 871 502 L 872 503 L 872 504 L 873 505 L 873 507 L 874 508 L 874 509 L 875 510 L 875 512 L 876 513 L 876 514 L 877 515 L 877 517 L 878 518 L 878 519 L 879 520 L 879 522 L 880 523 L 880 524 L 881 525 L 881 526 L 882 527 L 882 529 L 883 530 L 883 531 L 884 532 L 884 534 L 885 535 L 885 536 L 886 537 L 886 538 L 912 538 L 913 537 L 913 536 L 914 535 L 914 533 L 915 532 L 915 531 L 916 530 L 916 528 L 917 527 L 917 526 L 918 525 L 918 523 L 919 522 L 919 521 L 920 520 L 920 518 L 921 517 L 921 516 L 922 515 L 922 513 L 923 512 L 923 511 L 924 510 L 924 508 L 925 507 L 925 506 L 926 505 L 926 503 L 927 502 L 927 501 L 928 500 L 928 498 L 929 497 L 929 496 L 930 495 L 930 493 L 931 492 L 931 491 L 932 490 L 932 488 L 933 487 L 933 486 L 934 485 L 934 483 L 935 482 L 935 481 L 936 480 L 936 478 L 937 477 L 937 476 L 938 475 L 938 473 L 939 472 L 939 470 L 940 469 L 940 468 L 941 467 L 941 465 L 942 464 L 942 463 L 943 462 L 943 460 L 944 459 L 944 458 L 945 457 L 945 455 L 946 454 L 946 452 L 947 451 L 947 450 L 948 449 L 948 448 L 949 447 L 949 445 L 950 444 L 950 442 L 951 441 L 951 440 L 952 439 L 952 437 L 953 436 L 953 435 L 954 434 L 954 433 L 955 432 L 955 430 L 956 429 L 956 427 L 957 426 L 957 425 L 958 424 L 958 422 L 959 421 L 959 420 L 955 420 L 954 419 L 952 419 L 951 420 L 950 419 L 940 419 L 939 418 Z" fill="black" />
  <path d="M 763 418 L 762 419 L 757 419 L 756 420 L 753 420 L 752 421 L 749 421 L 748 422 L 746 422 L 745 423 L 744 423 L 743 424 L 742 424 L 741 425 L 740 425 L 738 427 L 737 427 L 734 430 L 733 430 L 733 431 L 730 434 L 730 435 L 729 436 L 729 437 L 728 438 L 728 440 L 727 441 L 727 444 L 726 445 L 726 448 L 725 449 L 725 453 L 728 453 L 729 454 L 734 454 L 735 455 L 741 455 L 742 456 L 749 456 L 750 457 L 750 453 L 751 452 L 751 447 L 752 446 L 752 445 L 753 444 L 753 443 L 755 441 L 756 441 L 757 440 L 760 440 L 761 439 L 763 439 L 764 438 L 780 438 L 781 439 L 785 439 L 786 440 L 787 440 L 788 441 L 789 441 L 795 447 L 795 448 L 796 449 L 796 450 L 797 451 L 797 453 L 798 454 L 798 459 L 799 460 L 799 463 L 798 464 L 798 465 L 797 466 L 795 466 L 794 467 L 785 467 L 784 468 L 783 467 L 774 467 L 773 468 L 761 468 L 760 469 L 756 469 L 755 470 L 752 470 L 751 471 L 748 471 L 747 472 L 745 472 L 744 473 L 742 473 L 741 474 L 740 474 L 739 475 L 738 475 L 737 476 L 736 476 L 735 477 L 734 477 L 732 479 L 731 479 L 725 485 L 725 486 L 724 487 L 724 488 L 723 489 L 723 490 L 722 491 L 722 493 L 721 494 L 721 499 L 720 500 L 720 515 L 721 516 L 721 521 L 722 522 L 722 524 L 723 525 L 723 526 L 724 527 L 724 528 L 730 534 L 731 534 L 732 535 L 733 535 L 734 536 L 735 536 L 736 537 L 738 537 L 739 538 L 741 538 L 742 539 L 745 539 L 746 540 L 753 540 L 754 541 L 769 541 L 770 540 L 776 540 L 777 539 L 780 539 L 781 538 L 783 538 L 784 537 L 785 537 L 786 536 L 788 536 L 790 534 L 791 534 L 796 529 L 797 529 L 797 528 L 799 526 L 800 527 L 800 538 L 820 538 L 821 537 L 824 537 L 824 465 L 823 464 L 823 451 L 822 450 L 822 447 L 821 446 L 821 443 L 820 442 L 820 440 L 819 439 L 819 438 L 817 436 L 817 435 L 816 434 L 816 433 L 813 430 L 813 429 L 812 429 L 808 425 L 807 425 L 805 423 L 804 423 L 803 422 L 802 422 L 801 421 L 799 421 L 798 420 L 796 420 L 795 419 L 790 419 L 789 418 Z" fill="black" />
  <path d="M 1000 416 L 999 417 L 986 417 L 985 418 L 980 418 L 980 538 L 988 538 L 989 537 L 1004 537 L 1004 416 Z" fill="black" />
  <path d="M 1166 379 L 1166 385 L 1165 386 L 1165 402 L 1170 402 L 1171 403 L 1207 403 L 1208 402 L 1213 402 L 1214 403 L 1214 538 L 1241 538 L 1241 405 L 1240 404 L 1241 403 L 1289 403 L 1289 379 Z" fill="black" />
  <path d="M 1038 379 L 1037 380 L 1037 407 L 1038 408 L 1038 538 L 1109 538 L 1110 537 L 1117 537 L 1118 536 L 1120 536 L 1121 535 L 1123 535 L 1124 534 L 1126 534 L 1127 533 L 1128 533 L 1129 532 L 1130 532 L 1131 531 L 1132 531 L 1134 529 L 1135 529 L 1138 526 L 1139 526 L 1145 520 L 1145 519 L 1147 517 L 1147 516 L 1149 514 L 1149 513 L 1150 512 L 1150 510 L 1151 509 L 1151 507 L 1152 506 L 1152 503 L 1153 502 L 1153 486 L 1152 485 L 1152 479 L 1151 478 L 1151 476 L 1150 475 L 1150 473 L 1148 471 L 1148 470 L 1141 463 L 1140 463 L 1139 462 L 1138 462 L 1136 460 L 1134 460 L 1133 459 L 1132 459 L 1131 458 L 1129 458 L 1128 457 L 1125 457 L 1124 456 L 1125 455 L 1126 455 L 1127 454 L 1129 454 L 1131 452 L 1132 452 L 1134 450 L 1135 450 L 1142 443 L 1142 442 L 1144 440 L 1144 439 L 1145 438 L 1145 435 L 1146 434 L 1146 432 L 1147 431 L 1147 424 L 1148 423 L 1148 416 L 1147 415 L 1147 408 L 1146 407 L 1146 405 L 1145 404 L 1145 403 L 1144 402 L 1144 401 L 1143 400 L 1143 399 L 1141 397 L 1141 396 L 1137 392 L 1136 392 L 1133 389 L 1132 389 L 1130 387 L 1129 387 L 1128 386 L 1127 386 L 1126 385 L 1124 385 L 1123 384 L 1122 384 L 1121 383 L 1119 383 L 1118 382 L 1114 382 L 1113 381 L 1109 381 L 1108 380 L 1098 380 L 1097 379 Z" fill="black" />
  <path d="M 556 379 L 556 538 L 582 538 L 582 423 L 583 422 L 584 423 L 584 425 L 586 427 L 586 428 L 588 430 L 588 431 L 591 434 L 591 435 L 594 438 L 594 439 L 596 441 L 596 442 L 599 445 L 599 446 L 601 448 L 601 449 L 603 451 L 603 452 L 606 455 L 606 456 L 608 458 L 608 459 L 611 462 L 611 463 L 613 465 L 613 466 L 616 469 L 616 470 L 618 472 L 618 473 L 620 475 L 620 476 L 623 479 L 623 480 L 625 482 L 625 483 L 628 486 L 628 487 L 630 489 L 630 490 L 633 493 L 633 494 L 635 496 L 635 497 L 638 500 L 638 501 L 641 504 L 641 505 L 643 507 L 643 508 L 645 510 L 645 511 L 648 514 L 648 515 L 650 517 L 650 518 L 653 521 L 653 522 L 655 524 L 655 525 L 658 528 L 658 529 L 660 531 L 660 532 L 663 535 L 663 536 L 665 538 L 691 538 L 691 379 L 667 379 L 667 399 L 666 400 L 666 435 L 667 436 L 667 471 L 666 472 L 666 493 L 665 494 L 664 493 L 664 492 L 661 489 L 661 488 L 659 486 L 659 485 L 657 483 L 657 482 L 654 479 L 654 478 L 652 476 L 652 475 L 649 472 L 649 471 L 646 468 L 646 467 L 644 465 L 644 464 L 641 461 L 641 460 L 639 458 L 639 457 L 636 454 L 636 453 L 633 450 L 633 449 L 631 447 L 631 446 L 628 443 L 628 442 L 625 439 L 625 438 L 622 435 L 622 434 L 619 431 L 619 430 L 616 427 L 616 426 L 614 424 L 614 423 L 611 420 L 611 419 L 608 416 L 608 415 L 606 413 L 606 412 L 602 408 L 602 407 L 599 404 L 599 403 L 596 400 L 596 399 L 594 397 L 594 396 L 591 393 L 591 392 L 588 389 L 588 388 L 586 386 L 586 385 L 583 382 L 583 381 L 581 379 Z" fill="black" />
  <path d="M 988 375 L 987 376 L 985 376 L 980 381 L 980 383 L 979 384 L 979 386 L 978 387 L 978 390 L 979 391 L 979 395 L 980 396 L 980 397 L 984 401 L 985 401 L 986 402 L 988 402 L 989 403 L 997 403 L 998 402 L 1000 402 L 1001 401 L 1002 401 L 1005 398 L 1005 397 L 1006 396 L 1006 395 L 1007 394 L 1007 383 L 1006 382 L 1006 381 L 1005 380 L 1005 379 L 1004 378 L 1003 378 L 1001 376 L 999 376 L 998 375 Z" fill="black" />
  <path d="M 332 368 L 331 369 L 325 369 L 324 370 L 320 370 L 319 371 L 316 371 L 315 372 L 313 372 L 312 373 L 310 373 L 309 374 L 307 374 L 306 375 L 304 375 L 303 376 L 302 376 L 301 377 L 299 377 L 298 378 L 297 378 L 296 379 L 295 379 L 294 380 L 293 380 L 292 381 L 291 381 L 290 382 L 289 382 L 288 383 L 287 383 L 285 385 L 284 385 L 283 386 L 282 386 L 280 388 L 279 388 L 275 392 L 274 392 L 271 395 L 270 395 L 256 409 L 256 410 L 252 414 L 252 415 L 249 418 L 249 419 L 247 421 L 247 422 L 245 424 L 245 425 L 244 426 L 244 427 L 242 429 L 242 430 L 241 431 L 241 432 L 240 433 L 240 434 L 239 435 L 239 436 L 238 437 L 238 438 L 237 439 L 237 440 L 236 441 L 236 443 L 235 444 L 235 446 L 234 447 L 234 449 L 233 450 L 233 452 L 232 453 L 232 455 L 231 456 L 231 459 L 230 460 L 230 464 L 229 465 L 229 470 L 228 471 L 228 479 L 227 480 L 227 495 L 228 496 L 228 504 L 229 505 L 229 506 L 228 507 L 229 508 L 229 510 L 230 511 L 229 512 L 230 513 L 230 516 L 231 517 L 231 519 L 232 520 L 232 523 L 233 524 L 233 527 L 234 528 L 234 529 L 235 530 L 235 532 L 236 533 L 236 535 L 237 536 L 237 537 L 238 538 L 238 539 L 239 540 L 239 541 L 240 542 L 240 543 L 241 544 L 241 545 L 242 546 L 242 547 L 243 548 L 243 549 L 245 551 L 245 552 L 246 553 L 246 554 L 248 556 L 248 557 L 250 559 L 250 560 L 253 563 L 253 564 L 259 570 L 259 571 L 265 577 L 266 577 L 272 583 L 273 583 L 275 585 L 276 585 L 280 589 L 281 589 L 283 591 L 284 591 L 285 592 L 286 592 L 288 594 L 289 594 L 290 595 L 291 595 L 292 596 L 293 596 L 294 597 L 295 597 L 296 598 L 297 598 L 298 599 L 299 599 L 300 600 L 302 600 L 303 601 L 304 601 L 305 602 L 307 602 L 308 603 L 310 603 L 311 604 L 313 604 L 314 605 L 316 605 L 317 606 L 320 606 L 321 607 L 322 606 L 323 607 L 327 607 L 328 608 L 331 608 L 332 609 L 349 609 L 350 610 L 351 609 L 362 609 L 363 608 L 370 608 L 371 607 L 374 607 L 375 606 L 379 606 L 380 605 L 382 605 L 383 604 L 386 604 L 387 603 L 389 603 L 390 602 L 391 602 L 392 601 L 394 601 L 395 600 L 396 600 L 397 599 L 398 599 L 399 598 L 400 598 L 401 597 L 402 597 L 403 596 L 404 596 L 405 595 L 406 595 L 408 593 L 409 593 L 410 592 L 411 592 L 412 591 L 413 591 L 415 589 L 416 589 L 420 585 L 421 585 L 424 582 L 425 582 L 438 569 L 438 568 L 439 567 L 440 567 L 440 566 L 444 562 L 444 561 L 447 558 L 447 557 L 449 555 L 449 554 L 450 553 L 450 552 L 451 551 L 451 550 L 453 548 L 453 547 L 454 546 L 454 545 L 455 544 L 455 543 L 456 542 L 456 541 L 457 540 L 457 539 L 458 538 L 458 537 L 459 536 L 459 535 L 460 534 L 460 532 L 461 531 L 461 529 L 462 528 L 462 526 L 463 525 L 463 523 L 464 522 L 464 519 L 465 518 L 465 515 L 466 514 L 466 509 L 467 508 L 467 501 L 468 500 L 468 480 L 467 479 L 467 470 L 466 469 L 466 464 L 465 463 L 465 461 L 464 460 L 464 457 L 463 456 L 463 453 L 462 452 L 462 450 L 461 449 L 461 447 L 460 446 L 460 444 L 459 443 L 459 442 L 458 441 L 458 440 L 457 439 L 457 437 L 456 436 L 456 435 L 455 434 L 455 433 L 453 431 L 453 429 L 454 428 L 454 427 L 455 426 L 455 425 L 456 424 L 456 423 L 457 422 L 457 421 L 459 419 L 459 418 L 460 417 L 460 416 L 461 415 L 461 414 L 462 413 L 462 412 L 464 410 L 464 409 L 465 408 L 465 407 L 466 406 L 466 405 L 467 404 L 467 403 L 469 401 L 469 400 L 470 399 L 470 398 L 471 397 L 471 396 L 472 395 L 472 394 L 474 392 L 474 391 L 475 390 L 475 389 L 474 390 L 473 390 L 472 391 L 471 391 L 470 392 L 468 392 L 467 393 L 466 393 L 465 394 L 464 394 L 463 395 L 462 395 L 461 396 L 460 396 L 459 397 L 458 397 L 457 398 L 456 398 L 455 399 L 454 399 L 453 400 L 452 400 L 451 401 L 450 401 L 449 402 L 448 402 L 447 403 L 446 403 L 445 404 L 444 404 L 443 405 L 442 405 L 441 406 L 440 406 L 439 407 L 438 407 L 437 408 L 425 396 L 424 396 L 420 392 L 419 392 L 417 390 L 416 390 L 414 388 L 413 388 L 411 386 L 410 386 L 408 384 L 407 384 L 406 383 L 405 383 L 404 382 L 403 382 L 402 381 L 401 381 L 399 379 L 397 379 L 396 378 L 395 378 L 394 377 L 392 377 L 391 376 L 390 376 L 389 375 L 387 375 L 386 374 L 384 374 L 383 373 L 381 373 L 380 372 L 377 372 L 376 371 L 372 371 L 371 370 L 368 370 L 367 369 L 360 369 L 359 368 Z" fill="black" />
</svg>